<svg xmlns="http://www.w3.org/2000/svg" shape-rendering="geometricPrecision" text-rendering="geometricPrecision" image-rendering="optimizeQuality" fill-rule="evenodd" clip-rule="evenodd" viewBox="0 0 512 493.84"><path d="M390.34 441.59V291H322.6c-28.71 5.15-57.43 20.71-86.15 38.8h-52.61c-23.81 1.43-36.28 25.57-13.15 41.43 18.45 13.52 42.79 12.76 67.74 10.52 17.2-.85 17.95 22.28 0 22.36-6.23.48-13.02-.98-18.93-.98-31.14-.03-56.79-5.99-72.49-30.59l-7.89-18.41-78.26-38.8c-39.16-12.9-66.99 28.07-38.14 56.56 56.68 41.24 114.82 75.17 174.27 102.58 43.19 26.27 86.37 25.38 129.56 0l63.79-32.88zM26.61 295.84C13.26 274.78 5.03 248.03.07 213.49c-.38-2.71.81-5.29 2.87-6.8 1.16-25.91 13.69-39.74 37.53-48.27 2.14-18.68 16.9-31.73 34.98-34.86 25.04-25.44 65.94-33.03 99-20.35 1.14.44 4.7 2.24 7.92 3.86.5.25.78.5.94.72 11.09-8.54 23.81-13.07 36.47-14.37 9.14-.93 18.27-.19 26.74 1.94l42.11-84.37c3.84-7.5 9.98-14.67 21.91-8.88 3.19 1.55 6 3.94 7.87 6.83 5.41 8.3.87 14.09-3.25 21.24l-45.58 75.58c9.12 6.43 16.4 15.39 19.04 26.41 3.95 1.12 7.74 2.37 11.34 3.76l53.07-88.26c4.43-7.18 11.13-13.83 22.55-7.11 3.06 1.8 5.67 4.41 7.31 7.43 4.73 8.71-.26 14.12-4.94 20.92l-55.4 78.84c20.12 14.12 32.83 36.04 27.22 61.26-.3 1.41.32 1.93.32 3.47l-.06.92c-.16 2.81-.4 5.62-.7 8.43-1.76 16.5-5.96 32.94-13.17 48.51H322.6c-.86 0-1.71.06-2.53.2 8.53-16.08 13.29-33.44 15.09-50.88H15.52c5.13 30.94 13.25 54.57 26.01 72.76-5.29.44-10.3 1.62-14.92 3.42zm231-103.63c-3.97 0-7.18-3.21-7.18-7.17 0-3.97 3.21-7.18 7.18-7.18h16.07c3.97 0 7.18 3.21 7.18 7.18 0 3.96-3.21 7.17-7.18 7.17h-16.07zm-3.88-47.66a7.155 7.155 0 1 1-5.83 13.07l-14.66-6.59a7.155 7.155 0 0 1-3.62-9.45 7.155 7.155 0 0 1 9.45-3.62l14.66 6.59zm-81.67 4.82a7.208 7.208 0 0 1-3.98-9.38 7.22 7.22 0 0 1 9.39-3.98l16.07 6.56a7.22 7.22 0 0 1 3.98 9.39 7.223 7.223 0 0 1-9.39 3.97l-16.07-6.56zm-5.53 42.84c-3.96 0-7.18-3.21-7.18-7.17a7.18 7.18 0 0 1 7.18-7.18h16.07c3.97 0 7.18 3.21 7.18 7.18 0 3.96-3.21 7.17-7.18 7.17h-16.07zm-54.6-32.63a7.155 7.155 0 0 1-9.45-3.62 7.155 7.155 0 0 1 3.62-9.45l14.66-6.59c3.61-1.61 7.84.01 9.45 3.62a7.155 7.155 0 0 1-3.62 9.45l-14.66 6.59zm-31.65 32.63c-3.97 0-7.18-3.21-7.18-7.17 0-3.97 3.21-7.18 7.18-7.18h16.07a7.18 7.18 0 0 1 7.18 7.18c0 3.96-3.22 7.17-7.18 7.17H80.28zm-62.88 13.1 318.54-.01c6.91-33.52-27.73-53.61-55.3-60.43-2.85-.7-5.1-3.13-5.41-6.22-1.43-13.91-14.66-23.51-26.9-27.81-8.3-2.92-17.69-4.14-27.09-3.17-11.1 1.13-22.23 5.35-31.62 13.43a7.118 7.118 0 0 1-5.13 2.16c-3.36 0-11.38-5.21-15.14-6.65-28.36-10.88-64.32-4.09-85.15 18.54a7.134 7.134 0 0 1-4.49 2.27c-13.94 1.55-25.12 11.2-25.21 25.77a7.184 7.184 0 0 1-5.02 7.33c-19.1 5.97-30.51 13.81-32.08 34.79zM44 238.06a5.723 5.723 0 0 1 3.45-7.32c2.97-1.06 6.25.48 7.32 3.46 3.91 10.84 8.9 21.3 14.91 31.14 1.65 2.7.8 6.23-1.9 7.87-2.7 1.65-6.23.8-7.88-1.9-6.39-10.47-11.75-21.71-15.9-33.25zm25.64 47.5a5.745 5.745 0 0 1 1.08-8.04 5.743 5.743 0 0 1 8.03 1.08c4.69 6.14 9.81 11.83 15.55 17a5.748 5.748 0 0 1 .43 8.1 5.73 5.73 0 0 1-8.1.43c-6.2-5.59-11.92-11.95-16.99-18.57zm433.5-9.03h-83.55c-4.88 0-8.87 3.98-8.87 8.86v162.46c0 4.88 3.99 8.87 8.87 8.87h83.55c4.87 0 8.86-3.99 8.86-8.87V285.39c0-4.88-3.99-8.86-8.86-8.86zm-41.78 27.35c-7.27 0-13.17 5.9-13.17 13.18 0 7.27 5.9 13.17 13.17 13.17 7.28 0 13.17-5.9 13.17-13.17 0-7.28-5.89-13.18-13.17-13.18z"/></svg>