<svg id="Layer_1" data-name="Layer 1" xmlns="http://www.w3.org/2000/svg" viewBox="0 0 118.36 122.88"><defs><style>.cls-1{fill-rule:evenodd;}</style></defs><title>investment-rouble</title><path class="cls-1" d="M73.63,68.55a23,23,0,0,1,5.5-5.3c3.78-2.59,8.3-4.08,13.66-5a1.58,1.58,0,0,1,.55,3.12c-5,.87-9.07,2.21-12.43,4.51a21.3,21.3,0,0,0-6.79,7.82c12.87,1.29,20.48,0,26-4s9.18-10.89,14-20.81l-4.41.22c-9.75.45-20.42.95-27.1,6.81a37.81,37.81,0,0,0-5,5.42,60.24,60.24,0,0,0-4,6v1.21ZM70.91,6a19.47,19.47,0,0,1,0,38.94C45.3,44.93,45.3,6,70.91,6Zm3,23.46v3.34h-4v2.88H64.15V32.79H61.87V29.45h2.28V27.66H61.87V24.32h2.28V15.25h8.94a8.14,8.14,0,0,1,5.28,1.52,5.58,5.58,0,0,1,1.84,4.54,5.74,5.74,0,0,1-2,4.72,9,9,0,0,1-5.82,1.63H69.89v1.79Zm-4-5.13h1.54A4.43,4.43,0,0,0,73,24.08a2.72,2.72,0,0,0,1-.63,2.37,2.37,0,0,0,.55-.91,3.39,3.39,0,0,0,.16-1.05,3.43,3.43,0,0,0-.13-.94,2.25,2.25,0,0,0-.48-.85,2.41,2.41,0,0,0-.94-.62,4,4,0,0,0-1.49-.24h-1.8v5.48ZM2.83,76.94H18.58a2.83,2.83,0,0,1,2.83,2.83v32.44A2.83,2.83,0,0,1,18.58,115H2.83A2.83,2.83,0,0,1,0,112.21V79.77a2.83,2.83,0,0,1,2.83-2.83Zm22.89,34.89V80H40c6.07,1.09,12.14,4.38,18.21,8.2H69.37c5,.31,7.67,5.41,2.78,8.76-3.9,2.86-9.05,2.7-14.32,2.22-3.64-.17-3.8,4.71,0,4.73,1.31.1,2.75-.21,4-.21,6.58,0,12-1.26,15.32-6.46l1.67-3.89,16.54-8.21c8.28-2.72,14.16,5.94,8.07,12a216.88,216.88,0,0,1-36.84,21.68c-9.13,5.56-18.26,5.37-27.39,0l-13.48-7ZM71,0a25.46,25.46,0,0,1,2.59,50.79V61.5c.51-.73,1-1.42,1.53-2.09a41,41,0,0,1,5.4-5.87c7.5-6.59,18.77-7.12,29.06-7.6,2.37-.11,4.69-.22,7-.41h0a1.71,1.71,0,0,1,.82.15,1.58,1.58,0,0,1,.73,2.11c-5.65,11.68-9.65,19.68-16.2,24.45-6.25,4.54-14.55,6-28.37,4.57v3.66a61.89,61.89,0,0,1,15.06,3.47l-9.44,4.68H77.56a8.8,8.8,0,0,0-1.9-2.15A10.47,10.47,0,0,0,70,84.19a5.85,5.85,0,0,0-.59,0h-10c-1.36-.84-2.72-1.66-4.09-2.43A60,60,0,0,1,68,80.22V72.46a33.12,33.12,0,0,1-11.68-.83,17.4,17.4,0,0,1-10.78-8.79l-.06-.09h0L41,53.54a1.92,1.92,0,0,1,.9-2.58,1.87,1.87,0,0,1,.95-.19h0l14.93.92.24,0h.05c2.78.35,5.83.73,8.6,3.16L68,56.18V50.74A25.46,25.46,0,0,1,71,0ZM87,9.55a22.5,22.5,0,1,0,6.59,15.91A22.44,22.44,0,0,0,87,9.55Zm-19,59v-.3a8,8,0,0,0-1.6-1.49,13.34,13.34,0,0,0-4.84-1.86,1.58,1.58,0,1,1,.66-3.1A16.79,16.79,0,0,1,68,64.05v-.4c-.07-.21-.15-.41-.23-.62a13.87,13.87,0,0,0-3.63-5.23c-1.89-1.66-4.31-2-6.53-2.24h-.05l-11.62-.72,3,6.21a13.69,13.69,0,0,0,8.45,6.88,30,30,0,0,0,10.6.66Z"/></svg>